M48
; DRILL file {KiCad (6.0.0)} date Sun Feb  6 13:53:12 2022
; FORMAT={-:-/ absolute / metric / decimal}
; #@! TF.CreationDate,2022-02-06T13:53:12+09:00
; #@! TF.GenerationSoftware,Kicad,Pcbnew,(6.0.0)
; #@! TF.FileFunction,MixedPlating,1,2
FMAT,2
METRIC
; #@! TA.AperFunction,Plated,PTH,ViaDrill
T1C0.635
; #@! TA.AperFunction,Plated,PTH,ComponentDrill
T2C1.000
; #@! TA.AperFunction,Plated,PTH,ComponentDrill
T3C1.340
; #@! TA.AperFunction,Plated,PTH,ComponentDrill
T4C1.500
; #@! TA.AperFunction,Plated,PTH,ComponentDrill
T5C1.600
; #@! TA.AperFunction,NonPlated,NPTH,ComponentDrill
T6C0.900
%
G90
G05
T1
X52.425Y-82.625
X52.675Y-52.575
X52.775Y-69.475
X60.925Y-61.425
X61.0Y-77.775
X63.505Y-59.177
X63.625Y-73.85
X64.175Y-71.3
X65.278Y-64.008
X66.545Y-59.205
X66.545Y-64.93
X70.125Y-73.575
X75.634Y-77.158
X75.775Y-80.95
X75.975Y-71.4
X77.22Y-65.528
X77.543Y-57.331
X80.9Y-74.1
X81.026Y-54.61
X85.925Y-80.15
X87.9Y-73.375
X91.694Y-62.992
X92.956Y-71.636
X93.1Y-78.9
X96.6Y-62.95
X99.55Y-82.325
X100.2Y-73.075
X100.825Y-62.95
X104.025Y-52.75
X104.7Y-78.725
X105.3Y-72.525
X111.325Y-63.25
X117.276Y-82.876
X121.375Y-63.1
X121.65Y-53.225
T2
X70.179Y-66.391
X82.263Y-71.367
X87.809Y-67.556
X114.179Y-78.784
T3
X60.705Y-53.625
X60.705Y-57.425
X69.345Y-53.625
X69.345Y-57.425
T4
X54.348Y-75.634
X120.732Y-75.634
T5
X51.808Y-73.094
X51.808Y-78.174
X56.888Y-73.094
X56.888Y-78.174
X118.192Y-73.094
X118.192Y-78.174
X123.272Y-73.094
X123.272Y-78.174
T6
X97.806Y-55.258
X100.806Y-55.258
T0
M30
