G04 #@! TF.GenerationSoftware,KiCad,Pcbnew,(6.0.0)*
G04 #@! TF.CreationDate,2022-02-06T13:52:44+09:00*
G04 #@! TF.ProjectId,mt_signallevelconv,6d745f73-6967-46e6-916c-6c6576656c63,0.1*
G04 #@! TF.SameCoordinates,Original*
G04 #@! TF.FileFunction,Soldermask,Top*
G04 #@! TF.FilePolarity,Negative*
%FSLAX46Y46*%
G04 Gerber Fmt 4.6, Leading zero omitted, Abs format (unit mm)*
G04 Created by KiCad (PCBNEW (6.0.0)) date 2022-02-06 13:52:44*
%MOMM*%
%LPD*%
G01*
G04 APERTURE LIST*
G04 Aperture macros list*
%AMRoundRect*
0 Rectangle with rounded corners*
0 $1 Rounding radius*
0 $2 $3 $4 $5 $6 $7 $8 $9 X,Y pos of 4 corners*
0 Add a 4 corners polygon primitive as box body*
4,1,4,$2,$3,$4,$5,$6,$7,$8,$9,$2,$3,0*
0 Add four circle primitives for the rounded corners*
1,1,$1+$1,$2,$3*
1,1,$1+$1,$4,$5*
1,1,$1+$1,$6,$7*
1,1,$1+$1,$8,$9*
0 Add four rect primitives between the rounded corners*
20,1,$1+$1,$2,$3,$4,$5,0*
20,1,$1+$1,$4,$5,$6,$7,0*
20,1,$1+$1,$6,$7,$8,$9,0*
20,1,$1+$1,$8,$9,$2,$3,0*%
%AMFreePoly0*
4,1,6,1.000000,0.000000,0.500000,-0.750000,-0.500000,-0.750000,-0.500000,0.750000,0.500000,0.750000,1.000000,0.000000,1.000000,0.000000,$1*%
G04 Aperture macros list end*
%ADD10RoundRect,0.250000X0.475000X-0.337500X0.475000X0.337500X-0.475000X0.337500X-0.475000X-0.337500X0*%
%ADD11RoundRect,0.250000X-0.450000X0.350000X-0.450000X-0.350000X0.450000X-0.350000X0.450000X0.350000X0*%
%ADD12RoundRect,0.250000X-0.350000X-0.450000X0.350000X-0.450000X0.350000X0.450000X-0.350000X0.450000X0*%
%ADD13RoundRect,0.250000X-0.337500X-0.475000X0.337500X-0.475000X0.337500X0.475000X-0.337500X0.475000X0*%
%ADD14R,1.425000X0.450000*%
%ADD15R,1.140000X0.760000*%
%ADD16C,0.900000*%
%ADD17R,0.700000X1.500000*%
%ADD18R,1.528000X0.650000*%
%ADD19R,1.700000X1.700000*%
%ADD20RoundRect,0.250000X0.450000X-0.350000X0.450000X0.350000X-0.450000X0.350000X-0.450000X-0.350000X0*%
%ADD21R,1.500000X1.500000*%
%ADD22FreePoly0,180.000000*%
%ADD23FreePoly0,0.000000*%
%ADD24R,0.700000X1.000000*%
%ADD25R,0.700000X0.600000*%
%ADD26C,2.450000*%
%ADD27C,2.250000*%
%ADD28R,2.540000X2.670000*%
%ADD29R,1.270000X0.762000*%
%ADD30RoundRect,0.250000X-0.475000X0.337500X-0.475000X-0.337500X0.475000X-0.337500X0.475000X0.337500X0*%
%ADD31R,0.700000X1.200000*%
%ADD32R,0.760000X1.200000*%
%ADD33R,0.800000X1.200000*%
%ADD34C,2.010000*%
%ADD35RoundRect,0.250000X0.450000X-0.325000X0.450000X0.325000X-0.450000X0.325000X-0.450000X-0.325000X0*%
G04 APERTURE END LIST*
D10*
G04 #@! TO.C,C5*
X92956000Y-75126000D03*
X92956000Y-73051000D03*
G04 #@! TD*
D11*
G04 #@! TO.C,R7*
X96004000Y-71094000D03*
X96004000Y-73094000D03*
G04 #@! TD*
D12*
G04 #@! TO.C,R8*
X109216400Y-76142000D03*
X111216400Y-76142000D03*
G04 #@! TD*
D13*
G04 #@! TO.C,C2*
X72128000Y-77158000D03*
X74203000Y-77158000D03*
G04 #@! TD*
D14*
G04 #@! TO.C,IC1*
X96433600Y-75279000D03*
X96433600Y-75929000D03*
X96433600Y-76579000D03*
X96433600Y-77229000D03*
X96433600Y-77879000D03*
X96433600Y-78529000D03*
X100857600Y-78529000D03*
X100857600Y-77879000D03*
X100857600Y-77229000D03*
X100857600Y-76579000D03*
X100857600Y-75929000D03*
X100857600Y-75279000D03*
G04 #@! TD*
D15*
G04 #@! TO.C,T1*
X68573000Y-75638000D03*
X68573000Y-77158000D03*
X68573000Y-78678000D03*
X65524000Y-78678000D03*
X65524000Y-77158000D03*
X65524000Y-75638000D03*
G04 #@! TD*
D16*
G04 #@! TO.C,S1*
X100805600Y-55257665D03*
X97805600Y-55257665D03*
D17*
X101555600Y-57007665D03*
X98555600Y-57007665D03*
X97055600Y-57007665D03*
G04 #@! TD*
D13*
G04 #@! TO.C,C8*
X103192200Y-75278400D03*
X105267200Y-75278400D03*
G04 #@! TD*
D18*
G04 #@! TO.C,IC2*
X79206900Y-59431600D03*
X79206900Y-60701600D03*
X79206900Y-61971600D03*
X79206900Y-63241600D03*
X84628900Y-63241600D03*
X84628900Y-61971600D03*
X84628900Y-60701600D03*
X84628900Y-59431600D03*
G04 #@! TD*
D11*
G04 #@! TO.C,R3*
X59333400Y-65619800D03*
X59333400Y-67619800D03*
G04 #@! TD*
D19*
G04 #@! TO.C,J3*
X114178800Y-78783600D03*
G04 #@! TD*
G04 #@! TO.C,J5*
X82262600Y-71366800D03*
G04 #@! TD*
D12*
G04 #@! TO.C,R5*
X72128000Y-79240800D03*
X74128000Y-79240800D03*
G04 #@! TD*
D20*
G04 #@! TO.C,R6*
X96004000Y-82714000D03*
X96004000Y-80714000D03*
G04 #@! TD*
D21*
G04 #@! TO.C,JP1*
X99877200Y-60639600D03*
X97477200Y-60639600D03*
D22*
X100677200Y-60639600D03*
D23*
X96677200Y-60639600D03*
G04 #@! TD*
D13*
G04 #@! TO.C,C9*
X87605600Y-62958600D03*
X89680600Y-62958600D03*
G04 #@! TD*
D19*
G04 #@! TO.C,J6*
X70179200Y-66391200D03*
G04 #@! TD*
D24*
G04 #@! TO.C,D2*
X64558400Y-66600800D03*
D25*
X64558400Y-68300800D03*
X66558400Y-68300800D03*
X66558400Y-66400800D03*
G04 #@! TD*
D13*
G04 #@! TO.C,C4*
X87876000Y-78174000D03*
X89951000Y-78174000D03*
G04 #@! TD*
D11*
G04 #@! TO.C,R11*
X87883000Y-58676200D03*
X87883000Y-60676200D03*
G04 #@! TD*
D13*
G04 #@! TO.C,C3*
X87876000Y-75634000D03*
X89951000Y-75634000D03*
G04 #@! TD*
G04 #@! TO.C,C1*
X59965300Y-75634000D03*
X62040300Y-75634000D03*
G04 #@! TD*
D11*
G04 #@! TO.C,R2*
X61619400Y-65645200D03*
X61619400Y-67645200D03*
G04 #@! TD*
G04 #@! TO.C,R10*
X84631800Y-55425000D03*
X84631800Y-57425000D03*
G04 #@! TD*
D19*
G04 #@! TO.C,J7*
X87808800Y-67556000D03*
G04 #@! TD*
D26*
G04 #@! TO.C,J4*
X123272000Y-73094000D03*
X123272000Y-78174000D03*
X118192000Y-73094000D03*
X118192000Y-78174000D03*
D27*
X120732000Y-75634000D03*
G04 #@! TD*
D28*
G04 #@! TO.C,D4*
X83812000Y-75983000D03*
D29*
X83812000Y-78334000D03*
G04 #@! TD*
D30*
G04 #@! TO.C,C6*
X75995800Y-63452600D03*
X75995800Y-65527600D03*
G04 #@! TD*
D12*
G04 #@! TO.C,R9*
X109216400Y-78682000D03*
X111216400Y-78682000D03*
G04 #@! TD*
D10*
G04 #@! TO.C,C7*
X75995800Y-59406200D03*
X75995800Y-57331200D03*
G04 #@! TD*
D26*
G04 #@! TO.C,J1*
X51808000Y-78174000D03*
X51808000Y-73094000D03*
X56888000Y-78174000D03*
X56888000Y-73094000D03*
D27*
X54348000Y-75634000D03*
G04 #@! TD*
D31*
G04 #@! TO.C,J2*
X65525000Y-57505000D03*
D32*
X63505000Y-57505000D03*
D33*
X62275000Y-57505000D03*
D31*
X64525000Y-57505000D03*
D32*
X66545000Y-57505000D03*
D33*
X67775000Y-57505000D03*
D34*
X69345000Y-53625000D03*
X60705000Y-53625000D03*
X69345000Y-57425000D03*
X60705000Y-57425000D03*
G04 #@! TD*
D35*
G04 #@! TO.C,D1*
X79297800Y-54605600D03*
X79297800Y-52555600D03*
G04 #@! TD*
D28*
G04 #@! TO.C,D3*
X78732000Y-78313700D03*
D29*
X78732000Y-75962700D03*
G04 #@! TD*
D20*
G04 #@! TO.C,R1*
X76046600Y-54548200D03*
X76046600Y-52548200D03*
G04 #@! TD*
D12*
G04 #@! TO.C,R4*
X72128000Y-75126000D03*
X74128000Y-75126000D03*
G04 #@! TD*
M02*
