G04 #@! TF.GenerationSoftware,KiCad,Pcbnew,(6.0.0)*
G04 #@! TF.CreationDate,2022-02-06T13:52:44+09:00*
G04 #@! TF.ProjectId,mt_signallevelconv,6d745f73-6967-46e6-916c-6c6576656c63,0.1*
G04 #@! TF.SameCoordinates,Original*
G04 #@! TF.FileFunction,Copper,L2,Bot*
G04 #@! TF.FilePolarity,Positive*
%FSLAX46Y46*%
G04 Gerber Fmt 4.6, Leading zero omitted, Abs format (unit mm)*
G04 Created by KiCad (PCBNEW (6.0.0)) date 2022-02-06 13:52:44*
%MOMM*%
%LPD*%
G01*
G04 APERTURE LIST*
G04 #@! TA.AperFunction,ComponentPad*
%ADD10R,1.700000X1.700000*%
G04 #@! TD*
G04 #@! TA.AperFunction,ComponentPad*
%ADD11C,2.450000*%
G04 #@! TD*
G04 #@! TA.AperFunction,ComponentPad*
%ADD12C,2.250000*%
G04 #@! TD*
G04 #@! TA.AperFunction,ComponentPad*
%ADD13C,2.010000*%
G04 #@! TD*
G04 #@! TA.AperFunction,ViaPad*
%ADD14C,0.889000*%
G04 #@! TD*
G04 #@! TA.AperFunction,Conductor*
%ADD15C,0.406400*%
G04 #@! TD*
G04 APERTURE END LIST*
D10*
G04 #@! TO.P,J3,1,Pin_1*
G04 #@! TO.N,Net-(J3-Pad1)*
X114178800Y-78783600D03*
G04 #@! TD*
G04 #@! TO.P,J5,1,Pin_1*
G04 #@! TO.N,GND*
X82262600Y-71366800D03*
G04 #@! TD*
G04 #@! TO.P,J6,1,Pin_1*
G04 #@! TO.N,/5V*
X70179200Y-66391200D03*
G04 #@! TD*
G04 #@! TO.P,J7,1,Pin_1*
G04 #@! TO.N,/3V3*
X87808800Y-67556000D03*
G04 #@! TD*
D11*
G04 #@! TO.P,J4,1,1*
G04 #@! TO.N,GND*
X123272000Y-73094000D03*
G04 #@! TO.P,J4,2,2*
X123272000Y-78174000D03*
G04 #@! TO.P,J4,3,3*
X118192000Y-73094000D03*
G04 #@! TO.P,J4,4,4*
X118192000Y-78174000D03*
D12*
G04 #@! TO.P,J4,5,5*
G04 #@! TO.N,Net-(J4-Pad5)*
X120732000Y-75634000D03*
G04 #@! TD*
D11*
G04 #@! TO.P,J1,1,1*
G04 #@! TO.N,GND*
X51808000Y-78174000D03*
G04 #@! TO.P,J1,2,2*
X51808000Y-73094000D03*
G04 #@! TO.P,J1,3,3*
X56888000Y-78174000D03*
G04 #@! TO.P,J1,4,4*
X56888000Y-73094000D03*
D12*
G04 #@! TO.P,J1,5,5*
G04 #@! TO.N,Net-(C1-Pad1)*
X54348000Y-75634000D03*
G04 #@! TD*
D13*
G04 #@! TO.P,J2,MH1,MH1*
G04 #@! TO.N,GND*
X69345000Y-53625000D03*
G04 #@! TO.P,J2,MH2,MH2*
X60705000Y-53625000D03*
G04 #@! TO.P,J2,MH3,MH3*
X69345000Y-57425000D03*
G04 #@! TO.P,J2,MH4,MH4*
X60705000Y-57425000D03*
G04 #@! TD*
D14*
G04 #@! TO.N,GND*
X104700000Y-78725000D03*
X60925000Y-61425000D03*
X52775000Y-69475000D03*
X63625000Y-73850000D03*
X61000000Y-77775000D03*
X64175000Y-71300000D03*
X75975000Y-71400000D03*
X111325000Y-63250000D03*
X121375000Y-63100000D03*
X52675000Y-52575000D03*
X52425000Y-82625000D03*
X70125000Y-73575000D03*
X80900000Y-74100000D03*
X85925000Y-80150000D03*
X75775000Y-80950000D03*
X87900000Y-73375000D03*
X93100000Y-78900000D03*
X99550000Y-82325000D03*
X100200000Y-73075000D03*
X96600000Y-62950000D03*
X105300000Y-72525000D03*
X100825000Y-62950000D03*
X104025000Y-52750000D03*
X121650000Y-53225000D03*
X117276000Y-82876000D03*
G04 #@! TO.N,/5V*
X66545000Y-59205000D03*
X65278000Y-64008000D03*
X66545000Y-64930000D03*
X63505000Y-59177000D03*
G04 #@! TO.N,GND*
X77220400Y-65527600D03*
X75634000Y-77158000D03*
X77542800Y-57331200D03*
X81026000Y-54610000D03*
X91694000Y-62992000D03*
X92956000Y-71636000D03*
G04 #@! TD*
D15*
G04 #@! TO.N,GND*
X92956000Y-64254000D02*
X92956000Y-71636000D01*
X91694000Y-62992000D02*
X92956000Y-64254000D01*
G04 #@! TO.N,/5V*
X63505000Y-59177000D02*
X63505000Y-62235000D01*
X63505000Y-62235000D02*
X65278000Y-64008000D01*
G04 #@! TO.N,GND*
X75634000Y-77158000D02*
X71570000Y-73094000D01*
X75634000Y-77158000D02*
X81425200Y-71366800D01*
X92686800Y-71366800D02*
X82262600Y-71366800D01*
X78304800Y-57331200D02*
X77542800Y-57331200D01*
X77220400Y-65527600D02*
X77220400Y-65300400D01*
X77542800Y-57331200D02*
X77449000Y-57425000D01*
X77449000Y-57425000D02*
X69345000Y-57425000D01*
X77220400Y-65300400D02*
X69345000Y-57425000D01*
X92956000Y-71636000D02*
X92686800Y-71366800D01*
X71570000Y-73094000D02*
X56888000Y-73094000D01*
X81026000Y-54610000D02*
X78304800Y-57331200D01*
X81425200Y-71366800D02*
X82262600Y-71366800D01*
G04 #@! TD*
G04 #@! TA.AperFunction,Conductor*
G04 #@! TO.N,GND*
G36*
X68820700Y-67289334D02*
G01*
X68827455Y-67351516D01*
X68878585Y-67487905D01*
X68965939Y-67604461D01*
X69082495Y-67691815D01*
X69218884Y-67742945D01*
X69250000Y-67746325D01*
X69250000Y-84000000D01*
X60725000Y-84000000D01*
X60725000Y-66500000D01*
X68820700Y-66500000D01*
X68820700Y-67289334D01*
G37*
G04 #@! TD.AperFunction*
G04 #@! TD*
G04 #@! TA.AperFunction,Conductor*
G04 #@! TO.N,GND*
G36*
X123942121Y-51020002D02*
G01*
X123988614Y-51073658D01*
X124000000Y-51126000D01*
X124000000Y-71334698D01*
X123979998Y-71402819D01*
X123926342Y-71449312D01*
X123856068Y-71459416D01*
X123835587Y-71454700D01*
X123682140Y-71405581D01*
X123673089Y-71403408D01*
X123428076Y-71363505D01*
X123418787Y-71362693D01*
X123170583Y-71359443D01*
X123161272Y-71360013D01*
X122915319Y-71393485D01*
X122906183Y-71395427D01*
X122667882Y-71464886D01*
X122659139Y-71468155D01*
X122433715Y-71572077D01*
X122425560Y-71576597D01*
X122252410Y-71690119D01*
X122243273Y-71700860D01*
X122247846Y-71710636D01*
X123542115Y-73004905D01*
X123576141Y-73067217D01*
X123571076Y-73138032D01*
X123542115Y-73183095D01*
X123361095Y-73364115D01*
X123298783Y-73398141D01*
X123227968Y-73393076D01*
X123182905Y-73364115D01*
X121891075Y-72072285D01*
X121877766Y-72065017D01*
X121867731Y-72072137D01*
X121860174Y-72081223D01*
X121854753Y-72088823D01*
X121725984Y-72301028D01*
X121721746Y-72309345D01*
X121625756Y-72538254D01*
X121622795Y-72547104D01*
X121561695Y-72787687D01*
X121560074Y-72796881D01*
X121535206Y-73043853D01*
X121534961Y-73053180D01*
X121546871Y-73301120D01*
X121548008Y-73310380D01*
X121596435Y-73553843D01*
X121598924Y-73562818D01*
X121682806Y-73796447D01*
X121686603Y-73804975D01*
X121804091Y-74023630D01*
X121809102Y-74031497D01*
X121905837Y-74161041D01*
X121930569Y-74227591D01*
X121915395Y-74296947D01*
X121865133Y-74347089D01*
X121795740Y-74362098D01*
X121729250Y-74337208D01*
X121723049Y-74332241D01*
X121698881Y-74311599D01*
X121698874Y-74311594D01*
X121695116Y-74308384D01*
X121475887Y-74174040D01*
X121471317Y-74172147D01*
X121471313Y-74172145D01*
X121242913Y-74077539D01*
X121242911Y-74077538D01*
X121238340Y-74075645D01*
X121151498Y-74054796D01*
X120993139Y-74016777D01*
X120993133Y-74016776D01*
X120988326Y-74015622D01*
X120732000Y-73995449D01*
X120475674Y-74015622D01*
X120470867Y-74016776D01*
X120470861Y-74016777D01*
X120312502Y-74054796D01*
X120225660Y-74075645D01*
X120221089Y-74077538D01*
X120221087Y-74077539D01*
X119992687Y-74172145D01*
X119992683Y-74172147D01*
X119988113Y-74174040D01*
X119768884Y-74308384D01*
X119755705Y-74319640D01*
X119690917Y-74348670D01*
X119620717Y-74338063D01*
X119567395Y-74291188D01*
X119547880Y-74222926D01*
X119568369Y-74154950D01*
X119574205Y-74147260D01*
X119574019Y-74147120D01*
X119582446Y-74135937D01*
X119716732Y-73927166D01*
X119721179Y-73918974D01*
X119823132Y-73692647D01*
X119826323Y-73683880D01*
X119893701Y-73444977D01*
X119895561Y-73435835D01*
X119927079Y-73188083D01*
X119927560Y-73181797D01*
X119929776Y-73097160D01*
X119929625Y-73090851D01*
X119911116Y-72841780D01*
X119909739Y-72832574D01*
X119854954Y-72590456D01*
X119852230Y-72581545D01*
X119762261Y-72350191D01*
X119758247Y-72341774D01*
X119635068Y-72126257D01*
X119629858Y-72118534D01*
X119595589Y-72075063D01*
X119583665Y-72066593D01*
X119572130Y-72073080D01*
X117172158Y-74473052D01*
X117165499Y-74485246D01*
X117174210Y-74496763D01*
X117267310Y-74565028D01*
X117275213Y-74569965D01*
X117494880Y-74685538D01*
X117503454Y-74689266D01*
X117737793Y-74771101D01*
X117746802Y-74773515D01*
X117990682Y-74819817D01*
X117999936Y-74820871D01*
X118247982Y-74830617D01*
X118257295Y-74830291D01*
X118504047Y-74803268D01*
X118513224Y-74801567D01*
X118753269Y-74738369D01*
X118762089Y-74735332D01*
X118990160Y-74637345D01*
X118998432Y-74633038D01*
X119209515Y-74502416D01*
X119217052Y-74496940D01*
X119248275Y-74470508D01*
X119313191Y-74441760D01*
X119383344Y-74452673D01*
X119436461Y-74499780D01*
X119455678Y-74568126D01*
X119434893Y-74636012D01*
X119425498Y-74648504D01*
X119406384Y-74670884D01*
X119272040Y-74890113D01*
X119173645Y-75127660D01*
X119113622Y-75377674D01*
X119093449Y-75634000D01*
X119113622Y-75890326D01*
X119173645Y-76140340D01*
X119272040Y-76377887D01*
X119406384Y-76597116D01*
X119424012Y-76617755D01*
X119453041Y-76682545D01*
X119442434Y-76752744D01*
X119395558Y-76806066D01*
X119327296Y-76825580D01*
X119256378Y-76803110D01*
X119077872Y-76679275D01*
X119069837Y-76674542D01*
X118847201Y-76564750D01*
X118838568Y-76561262D01*
X118602140Y-76485581D01*
X118593089Y-76483408D01*
X118348076Y-76443505D01*
X118338787Y-76442693D01*
X118090583Y-76439443D01*
X118081272Y-76440013D01*
X117835319Y-76473485D01*
X117826183Y-76475427D01*
X117587882Y-76544886D01*
X117579139Y-76548155D01*
X117353715Y-76652077D01*
X117345560Y-76656597D01*
X117172410Y-76770119D01*
X117163273Y-76780860D01*
X117167846Y-76790636D01*
X119573823Y-79196613D01*
X119586203Y-79203373D01*
X119594544Y-79197129D01*
X119716732Y-79007166D01*
X119721178Y-78998977D01*
X119823132Y-78772647D01*
X119826323Y-78763880D01*
X119893701Y-78524977D01*
X119895561Y-78515835D01*
X119927079Y-78268083D01*
X119927560Y-78261797D01*
X119929776Y-78177160D01*
X119929625Y-78170851D01*
X119911116Y-77921780D01*
X119909739Y-77912574D01*
X119854954Y-77670456D01*
X119852230Y-77661545D01*
X119762261Y-77430191D01*
X119758247Y-77421774D01*
X119635070Y-77206262D01*
X119629854Y-77198529D01*
X119558821Y-77108423D01*
X119532356Y-77042543D01*
X119545709Y-76972813D01*
X119594641Y-76921373D01*
X119663617Y-76904553D01*
X119730736Y-76927694D01*
X119739601Y-76934606D01*
X119765119Y-76956401D01*
X119765124Y-76956404D01*
X119768884Y-76959616D01*
X119988113Y-77093960D01*
X119992683Y-77095853D01*
X119992687Y-77095855D01*
X120221087Y-77190461D01*
X120225660Y-77192355D01*
X120251377Y-77198529D01*
X120470861Y-77251223D01*
X120470867Y-77251224D01*
X120475674Y-77252378D01*
X120732000Y-77272551D01*
X120988326Y-77252378D01*
X120993133Y-77251224D01*
X120993139Y-77251223D01*
X121212623Y-77198529D01*
X121238340Y-77192355D01*
X121242913Y-77190461D01*
X121471313Y-77095855D01*
X121471317Y-77095853D01*
X121475887Y-77093960D01*
X121695116Y-76959616D01*
X121720437Y-76937990D01*
X121785227Y-76908959D01*
X121855427Y-76919564D01*
X121908749Y-76966439D01*
X121928264Y-77034701D01*
X121907776Y-77102677D01*
X121899141Y-77114371D01*
X121860167Y-77161232D01*
X121854757Y-77168817D01*
X121725984Y-77381028D01*
X121721746Y-77389345D01*
X121625756Y-77618254D01*
X121622795Y-77627104D01*
X121561695Y-77867687D01*
X121560074Y-77876881D01*
X121535206Y-78123853D01*
X121534961Y-78133180D01*
X121546871Y-78381120D01*
X121548008Y-78390380D01*
X121596435Y-78633843D01*
X121598924Y-78642818D01*
X121682806Y-78876447D01*
X121686603Y-78884975D01*
X121804091Y-79103630D01*
X121809105Y-79111501D01*
X121869308Y-79192123D01*
X121880569Y-79200574D01*
X121892987Y-79193803D01*
X123182905Y-77903885D01*
X123245217Y-77869859D01*
X123316032Y-77874924D01*
X123361095Y-77903885D01*
X123542115Y-78084905D01*
X123576141Y-78147217D01*
X123571076Y-78218032D01*
X123542115Y-78263095D01*
X122252158Y-79553052D01*
X122245499Y-79565246D01*
X122254210Y-79576763D01*
X122347310Y-79645028D01*
X122355213Y-79649965D01*
X122574880Y-79765538D01*
X122583454Y-79769266D01*
X122817793Y-79851101D01*
X122826802Y-79853515D01*
X123070682Y-79899817D01*
X123079936Y-79900871D01*
X123327982Y-79910617D01*
X123337295Y-79910291D01*
X123584047Y-79883268D01*
X123593224Y-79881567D01*
X123837792Y-79817178D01*
X123838070Y-79818232D01*
X123903910Y-79815207D01*
X123965336Y-79850807D01*
X123997763Y-79913966D01*
X124000000Y-79937605D01*
X124000000Y-83874000D01*
X123979998Y-83942121D01*
X123926342Y-83988614D01*
X123874000Y-84000000D01*
X68250000Y-84000000D01*
X68250000Y-79681734D01*
X112820300Y-79681734D01*
X112827055Y-79743916D01*
X112878185Y-79880305D01*
X112965539Y-79996861D01*
X113082095Y-80084215D01*
X113218484Y-80135345D01*
X113280666Y-80142100D01*
X115076934Y-80142100D01*
X115139116Y-80135345D01*
X115275505Y-80084215D01*
X115392061Y-79996861D01*
X115479415Y-79880305D01*
X115530545Y-79743916D01*
X115537300Y-79681734D01*
X115537300Y-79565246D01*
X117165499Y-79565246D01*
X117174210Y-79576763D01*
X117267310Y-79645028D01*
X117275213Y-79649965D01*
X117494880Y-79765538D01*
X117503454Y-79769266D01*
X117737793Y-79851101D01*
X117746802Y-79853515D01*
X117990682Y-79899817D01*
X117999936Y-79900871D01*
X118247982Y-79910617D01*
X118257295Y-79910291D01*
X118504047Y-79883268D01*
X118513224Y-79881567D01*
X118753269Y-79818369D01*
X118762089Y-79815332D01*
X118990160Y-79717345D01*
X118998432Y-79713038D01*
X119209513Y-79582417D01*
X119213904Y-79579227D01*
X119221778Y-79567279D01*
X119215715Y-79556925D01*
X118204812Y-78546022D01*
X118190868Y-78538408D01*
X118189035Y-78538539D01*
X118182420Y-78542790D01*
X117172158Y-79553052D01*
X117165499Y-79565246D01*
X115537300Y-79565246D01*
X115537300Y-78133180D01*
X116454961Y-78133180D01*
X116466871Y-78381120D01*
X116468008Y-78390380D01*
X116516435Y-78633843D01*
X116518924Y-78642818D01*
X116602806Y-78876447D01*
X116606603Y-78884975D01*
X116724091Y-79103630D01*
X116729105Y-79111501D01*
X116789308Y-79192123D01*
X116800569Y-79200574D01*
X116812987Y-79193803D01*
X117819978Y-78186812D01*
X117827592Y-78172868D01*
X117827461Y-78171035D01*
X117823210Y-78164420D01*
X116811075Y-77152285D01*
X116797766Y-77145017D01*
X116787731Y-77152137D01*
X116780174Y-77161223D01*
X116774753Y-77168823D01*
X116645984Y-77381028D01*
X116641746Y-77389345D01*
X116545756Y-77618254D01*
X116542795Y-77627104D01*
X116481695Y-77867687D01*
X116480074Y-77876881D01*
X116455206Y-78123853D01*
X116454961Y-78133180D01*
X115537300Y-78133180D01*
X115537300Y-77885466D01*
X115530545Y-77823284D01*
X115479415Y-77686895D01*
X115392061Y-77570339D01*
X115275505Y-77482985D01*
X115139116Y-77431855D01*
X115076934Y-77425100D01*
X113280666Y-77425100D01*
X113218484Y-77431855D01*
X113082095Y-77482985D01*
X112965539Y-77570339D01*
X112878185Y-77686895D01*
X112827055Y-77823284D01*
X112820300Y-77885466D01*
X112820300Y-79681734D01*
X68250000Y-79681734D01*
X68250000Y-73053180D01*
X116454961Y-73053180D01*
X116466871Y-73301120D01*
X116468008Y-73310380D01*
X116516435Y-73553843D01*
X116518924Y-73562818D01*
X116602806Y-73796447D01*
X116606603Y-73804975D01*
X116724091Y-74023630D01*
X116729105Y-74031501D01*
X116789308Y-74112123D01*
X116800569Y-74120574D01*
X116812987Y-74113803D01*
X117819978Y-73106812D01*
X117827592Y-73092868D01*
X117827461Y-73091035D01*
X117823210Y-73084420D01*
X116811075Y-72072285D01*
X116797766Y-72065017D01*
X116787731Y-72072137D01*
X116780174Y-72081223D01*
X116774753Y-72088823D01*
X116645984Y-72301028D01*
X116641746Y-72309345D01*
X116545756Y-72538254D01*
X116542795Y-72547104D01*
X116481695Y-72787687D01*
X116480074Y-72796881D01*
X116455206Y-73043853D01*
X116454961Y-73053180D01*
X68250000Y-73053180D01*
X68250000Y-72261469D01*
X80904601Y-72261469D01*
X80904971Y-72268290D01*
X80910495Y-72319152D01*
X80914121Y-72334404D01*
X80959276Y-72454854D01*
X80967814Y-72470449D01*
X81044315Y-72572524D01*
X81056876Y-72585085D01*
X81158951Y-72661586D01*
X81174546Y-72670124D01*
X81294994Y-72715278D01*
X81310249Y-72718905D01*
X81361114Y-72724431D01*
X81367928Y-72724800D01*
X81990485Y-72724800D01*
X82005724Y-72720325D01*
X82006929Y-72718935D01*
X82008600Y-72711252D01*
X82008600Y-72706684D01*
X82516600Y-72706684D01*
X82521075Y-72721923D01*
X82522465Y-72723128D01*
X82530148Y-72724799D01*
X83157269Y-72724799D01*
X83164090Y-72724429D01*
X83214952Y-72718905D01*
X83230204Y-72715279D01*
X83350654Y-72670124D01*
X83366249Y-72661586D01*
X83468324Y-72585085D01*
X83480885Y-72572524D01*
X83557386Y-72470449D01*
X83565924Y-72454854D01*
X83611078Y-72334406D01*
X83614705Y-72319151D01*
X83620231Y-72268286D01*
X83620600Y-72261472D01*
X83620600Y-71700860D01*
X117163273Y-71700860D01*
X117167846Y-71710636D01*
X118179188Y-72721978D01*
X118193132Y-72729592D01*
X118194965Y-72729461D01*
X118201580Y-72725210D01*
X119212453Y-71714337D01*
X119218837Y-71702647D01*
X119209425Y-71690537D01*
X119077868Y-71599272D01*
X119069839Y-71594543D01*
X118847201Y-71484750D01*
X118838568Y-71481262D01*
X118602140Y-71405581D01*
X118593089Y-71403408D01*
X118348076Y-71363505D01*
X118338787Y-71362693D01*
X118090583Y-71359443D01*
X118081272Y-71360013D01*
X117835319Y-71393485D01*
X117826183Y-71395427D01*
X117587882Y-71464886D01*
X117579139Y-71468155D01*
X117353715Y-71572077D01*
X117345560Y-71576597D01*
X117172410Y-71690119D01*
X117163273Y-71700860D01*
X83620600Y-71700860D01*
X83620600Y-71638915D01*
X83616125Y-71623676D01*
X83614735Y-71622471D01*
X83607052Y-71620800D01*
X82534715Y-71620800D01*
X82519476Y-71625275D01*
X82518271Y-71626665D01*
X82516600Y-71634348D01*
X82516600Y-72706684D01*
X82008600Y-72706684D01*
X82008600Y-71638915D01*
X82004125Y-71623676D01*
X82002735Y-71622471D01*
X81995052Y-71620800D01*
X80922716Y-71620800D01*
X80907477Y-71625275D01*
X80906272Y-71626665D01*
X80904601Y-71634348D01*
X80904601Y-72261469D01*
X68250000Y-72261469D01*
X68250000Y-71094685D01*
X80904600Y-71094685D01*
X80909075Y-71109924D01*
X80910465Y-71111129D01*
X80918148Y-71112800D01*
X81990485Y-71112800D01*
X82005724Y-71108325D01*
X82006929Y-71106935D01*
X82008600Y-71099252D01*
X82008600Y-71094685D01*
X82516600Y-71094685D01*
X82521075Y-71109924D01*
X82522465Y-71111129D01*
X82530148Y-71112800D01*
X83602484Y-71112800D01*
X83617723Y-71108325D01*
X83618928Y-71106935D01*
X83620599Y-71099252D01*
X83620599Y-70472131D01*
X83620229Y-70465310D01*
X83614705Y-70414448D01*
X83611079Y-70399196D01*
X83565924Y-70278746D01*
X83557386Y-70263151D01*
X83480885Y-70161076D01*
X83468324Y-70148515D01*
X83366249Y-70072014D01*
X83350654Y-70063476D01*
X83230206Y-70018322D01*
X83214951Y-70014695D01*
X83164086Y-70009169D01*
X83157272Y-70008800D01*
X82534715Y-70008800D01*
X82519476Y-70013275D01*
X82518271Y-70014665D01*
X82516600Y-70022348D01*
X82516600Y-71094685D01*
X82008600Y-71094685D01*
X82008600Y-70026916D01*
X82004125Y-70011677D01*
X82002735Y-70010472D01*
X81995052Y-70008801D01*
X81367931Y-70008801D01*
X81361110Y-70009171D01*
X81310248Y-70014695D01*
X81294996Y-70018321D01*
X81174546Y-70063476D01*
X81158951Y-70072014D01*
X81056876Y-70148515D01*
X81044315Y-70161076D01*
X80967814Y-70263151D01*
X80959276Y-70278746D01*
X80914122Y-70399194D01*
X80910495Y-70414449D01*
X80904969Y-70465314D01*
X80904600Y-70472128D01*
X80904600Y-71094685D01*
X68250000Y-71094685D01*
X68250000Y-68454134D01*
X86450300Y-68454134D01*
X86457055Y-68516316D01*
X86508185Y-68652705D01*
X86595539Y-68769261D01*
X86712095Y-68856615D01*
X86848484Y-68907745D01*
X86910666Y-68914500D01*
X88706934Y-68914500D01*
X88769116Y-68907745D01*
X88905505Y-68856615D01*
X89022061Y-68769261D01*
X89109415Y-68652705D01*
X89160545Y-68516316D01*
X89167300Y-68454134D01*
X89167300Y-66657866D01*
X89160545Y-66595684D01*
X89109415Y-66459295D01*
X89022061Y-66342739D01*
X88905505Y-66255385D01*
X88769116Y-66204255D01*
X88706934Y-66197500D01*
X86910666Y-66197500D01*
X86848484Y-66204255D01*
X86712095Y-66255385D01*
X86595539Y-66342739D01*
X86508185Y-66459295D01*
X86457055Y-66595684D01*
X86450300Y-66657866D01*
X86450300Y-68454134D01*
X68250000Y-68454134D01*
X68250000Y-67289334D01*
X68820700Y-67289334D01*
X68827455Y-67351516D01*
X68878585Y-67487905D01*
X68965939Y-67604461D01*
X69082495Y-67691815D01*
X69218884Y-67742945D01*
X69281066Y-67749700D01*
X71077334Y-67749700D01*
X71139516Y-67742945D01*
X71275905Y-67691815D01*
X71392461Y-67604461D01*
X71479815Y-67487905D01*
X71530945Y-67351516D01*
X71537700Y-67289334D01*
X71537700Y-65493066D01*
X71530945Y-65430884D01*
X71479815Y-65294495D01*
X71392461Y-65177939D01*
X71275905Y-65090585D01*
X71139516Y-65039455D01*
X71077334Y-65032700D01*
X69281066Y-65032700D01*
X69218884Y-65039455D01*
X69082495Y-65090585D01*
X68965939Y-65177939D01*
X68878585Y-65294495D01*
X68827455Y-65430884D01*
X68820700Y-65493066D01*
X68820700Y-67289334D01*
X68250000Y-67289334D01*
X68250000Y-58752198D01*
X68270002Y-58684077D01*
X68323658Y-58637584D01*
X68393932Y-58627480D01*
X68450063Y-58650263D01*
X68457152Y-58655414D01*
X68651769Y-58774675D01*
X68660563Y-58779156D01*
X68871439Y-58866504D01*
X68880824Y-58869553D01*
X69102770Y-58922838D01*
X69112517Y-58924381D01*
X69340070Y-58942290D01*
X69349930Y-58942290D01*
X69577483Y-58924381D01*
X69587230Y-58922838D01*
X69809176Y-58869553D01*
X69818561Y-58866504D01*
X70029437Y-58779156D01*
X70038231Y-58774675D01*
X70207083Y-58671203D01*
X70216543Y-58660747D01*
X70212759Y-58651969D01*
X69074885Y-57514095D01*
X69040859Y-57451783D01*
X69042694Y-57426132D01*
X69709408Y-57426132D01*
X69709539Y-57427965D01*
X69713790Y-57434580D01*
X70568926Y-58289716D01*
X70581306Y-58296476D01*
X70588956Y-58290749D01*
X70694675Y-58118231D01*
X70699156Y-58109437D01*
X70786504Y-57898561D01*
X70789553Y-57889176D01*
X70842838Y-57667230D01*
X70844381Y-57657483D01*
X70862290Y-57429930D01*
X70862290Y-57420070D01*
X70844381Y-57192517D01*
X70842838Y-57182770D01*
X70789553Y-56960824D01*
X70786504Y-56951439D01*
X70699156Y-56740563D01*
X70694675Y-56731769D01*
X70591203Y-56562917D01*
X70580747Y-56553457D01*
X70571969Y-56557241D01*
X69717022Y-57412188D01*
X69709408Y-57426132D01*
X69042694Y-57426132D01*
X69045924Y-57380968D01*
X69074885Y-57335905D01*
X70209716Y-56201074D01*
X70216476Y-56188694D01*
X70210749Y-56181044D01*
X70038231Y-56075325D01*
X70029437Y-56070844D01*
X69818561Y-55983496D01*
X69809176Y-55980447D01*
X69587230Y-55927162D01*
X69577483Y-55925619D01*
X69349930Y-55907710D01*
X69340070Y-55907710D01*
X69112517Y-55925619D01*
X69102770Y-55927162D01*
X68989414Y-55954377D01*
X68918506Y-55950830D01*
X68860772Y-55909510D01*
X68834542Y-55843537D01*
X68834000Y-55831858D01*
X68834000Y-55304729D01*
X96843307Y-55304729D01*
X96872425Y-55497264D01*
X96874628Y-55503250D01*
X96874629Y-55503256D01*
X96937460Y-55674025D01*
X96937462Y-55674030D01*
X96939663Y-55680011D01*
X97042274Y-55845505D01*
X97046655Y-55850138D01*
X97046656Y-55850139D01*
X97118607Y-55926225D01*
X97176066Y-55986987D01*
X97335575Y-56098676D01*
X97341438Y-56101213D01*
X97508425Y-56173475D01*
X97508429Y-56173476D01*
X97514284Y-56176010D01*
X97520531Y-56177315D01*
X97520534Y-56177316D01*
X97700157Y-56214841D01*
X97700162Y-56214842D01*
X97704893Y-56215830D01*
X97711285Y-56216165D01*
X97854263Y-56216165D01*
X97923551Y-56209127D01*
X97992978Y-56202075D01*
X97992979Y-56202075D01*
X97999327Y-56201430D01*
X98055661Y-56183776D01*
X98179051Y-56145109D01*
X98179056Y-56145107D01*
X98185141Y-56143200D01*
X98272075Y-56095011D01*
X98349871Y-56051888D01*
X98349874Y-56051886D01*
X98355450Y-56048795D01*
X98360291Y-56044646D01*
X98360295Y-56044643D01*
X98498455Y-55926225D01*
X98503298Y-55922074D01*
X98622646Y-55768212D01*
X98663379Y-55685433D01*
X98705800Y-55599221D01*
X98708618Y-55593494D01*
X98710228Y-55587314D01*
X98756092Y-55411240D01*
X98756092Y-55411237D01*
X98757702Y-55405058D01*
X98762960Y-55304729D01*
X99843307Y-55304729D01*
X99872425Y-55497264D01*
X99874628Y-55503250D01*
X99874629Y-55503256D01*
X99937460Y-55674025D01*
X99937462Y-55674030D01*
X99939663Y-55680011D01*
X100042274Y-55845505D01*
X100046655Y-55850138D01*
X100046656Y-55850139D01*
X100118607Y-55926225D01*
X100176066Y-55986987D01*
X100335575Y-56098676D01*
X100341438Y-56101213D01*
X100508425Y-56173475D01*
X100508429Y-56173476D01*
X100514284Y-56176010D01*
X100520531Y-56177315D01*
X100520534Y-56177316D01*
X100700157Y-56214841D01*
X100700162Y-56214842D01*
X100704893Y-56215830D01*
X100711285Y-56216165D01*
X100854263Y-56216165D01*
X100923551Y-56209127D01*
X100992978Y-56202075D01*
X100992979Y-56202075D01*
X100999327Y-56201430D01*
X101055661Y-56183776D01*
X101179051Y-56145109D01*
X101179056Y-56145107D01*
X101185141Y-56143200D01*
X101272075Y-56095011D01*
X101349871Y-56051888D01*
X101349874Y-56051886D01*
X101355450Y-56048795D01*
X101360291Y-56044646D01*
X101360295Y-56044643D01*
X101498455Y-55926225D01*
X101503298Y-55922074D01*
X101622646Y-55768212D01*
X101663379Y-55685433D01*
X101705800Y-55599221D01*
X101708618Y-55593494D01*
X101710228Y-55587314D01*
X101756092Y-55411240D01*
X101756092Y-55411237D01*
X101757702Y-55405058D01*
X101767893Y-55210601D01*
X101738775Y-55018066D01*
X101736572Y-55012080D01*
X101736571Y-55012074D01*
X101673740Y-54841305D01*
X101673738Y-54841300D01*
X101671537Y-54835319D01*
X101568926Y-54669825D01*
X101435134Y-54528343D01*
X101275625Y-54416654D01*
X101227613Y-54395877D01*
X101102775Y-54341855D01*
X101102771Y-54341854D01*
X101096916Y-54339320D01*
X101090669Y-54338015D01*
X101090666Y-54338014D01*
X100911043Y-54300489D01*
X100911038Y-54300488D01*
X100906307Y-54299500D01*
X100899915Y-54299165D01*
X100756937Y-54299165D01*
X100687649Y-54306203D01*
X100618222Y-54313255D01*
X100618221Y-54313255D01*
X100611873Y-54313900D01*
X100598053Y-54318231D01*
X100432149Y-54370221D01*
X100432144Y-54370223D01*
X100426059Y-54372130D01*
X100350313Y-54414117D01*
X100261329Y-54463442D01*
X100261326Y-54463444D01*
X100255750Y-54466535D01*
X100250909Y-54470684D01*
X100250905Y-54470687D01*
X100220817Y-54496476D01*
X100107902Y-54593256D01*
X99988554Y-54747118D01*
X99985738Y-54752841D01*
X99985736Y-54752844D01*
X99905400Y-54916109D01*
X99902582Y-54921836D01*
X99900973Y-54928014D01*
X99900972Y-54928016D01*
X99855255Y-55103528D01*
X99853498Y-55110272D01*
X99843307Y-55304729D01*
X98762960Y-55304729D01*
X98767893Y-55210601D01*
X98738775Y-55018066D01*
X98736572Y-55012080D01*
X98736571Y-55012074D01*
X98673740Y-54841305D01*
X98673738Y-54841300D01*
X98671537Y-54835319D01*
X98568926Y-54669825D01*
X98435134Y-54528343D01*
X98275625Y-54416654D01*
X98227613Y-54395877D01*
X98102775Y-54341855D01*
X98102771Y-54341854D01*
X98096916Y-54339320D01*
X98090669Y-54338015D01*
X98090666Y-54338014D01*
X97911043Y-54300489D01*
X97911038Y-54300488D01*
X97906307Y-54299500D01*
X97899915Y-54299165D01*
X97756937Y-54299165D01*
X97687649Y-54306203D01*
X97618222Y-54313255D01*
X97618221Y-54313255D01*
X97611873Y-54313900D01*
X97598053Y-54318231D01*
X97432149Y-54370221D01*
X97432144Y-54370223D01*
X97426059Y-54372130D01*
X97350313Y-54414117D01*
X97261329Y-54463442D01*
X97261326Y-54463444D01*
X97255750Y-54466535D01*
X97250909Y-54470684D01*
X97250905Y-54470687D01*
X97220817Y-54496476D01*
X97107902Y-54593256D01*
X96988554Y-54747118D01*
X96985738Y-54752841D01*
X96985736Y-54752844D01*
X96905400Y-54916109D01*
X96902582Y-54921836D01*
X96900973Y-54928014D01*
X96900972Y-54928016D01*
X96855255Y-55103528D01*
X96853498Y-55110272D01*
X96843307Y-55304729D01*
X68834000Y-55304729D01*
X68834000Y-55218142D01*
X68854002Y-55150021D01*
X68907658Y-55103528D01*
X68977932Y-55093424D01*
X68989414Y-55095623D01*
X69102770Y-55122838D01*
X69112517Y-55124381D01*
X69340070Y-55142290D01*
X69349930Y-55142290D01*
X69577483Y-55124381D01*
X69587230Y-55122838D01*
X69809176Y-55069553D01*
X69818561Y-55066504D01*
X70029437Y-54979156D01*
X70038231Y-54974675D01*
X70207083Y-54871203D01*
X70216543Y-54860747D01*
X70212759Y-54851969D01*
X69074885Y-53714095D01*
X69040859Y-53651783D01*
X69042694Y-53626132D01*
X69709408Y-53626132D01*
X69709539Y-53627965D01*
X69713790Y-53634580D01*
X70568926Y-54489716D01*
X70581306Y-54496476D01*
X70588956Y-54490749D01*
X70694675Y-54318231D01*
X70699156Y-54309437D01*
X70786504Y-54098561D01*
X70789553Y-54089176D01*
X70842838Y-53867230D01*
X70844381Y-53857483D01*
X70862290Y-53629930D01*
X70862290Y-53620070D01*
X70844381Y-53392517D01*
X70842838Y-53382770D01*
X70789553Y-53160824D01*
X70786504Y-53151439D01*
X70699156Y-52940563D01*
X70694675Y-52931769D01*
X70591203Y-52762917D01*
X70580747Y-52753457D01*
X70571969Y-52757241D01*
X69717022Y-53612188D01*
X69709408Y-53626132D01*
X69042694Y-53626132D01*
X69045924Y-53580968D01*
X69074885Y-53535905D01*
X70209716Y-52401074D01*
X70216476Y-52388694D01*
X70210749Y-52381044D01*
X70038231Y-52275325D01*
X70029437Y-52270844D01*
X69818561Y-52183496D01*
X69809176Y-52180447D01*
X69587230Y-52127162D01*
X69577483Y-52125619D01*
X69349930Y-52107710D01*
X69340070Y-52107710D01*
X69112517Y-52125619D01*
X69102770Y-52127162D01*
X68989414Y-52154377D01*
X68918506Y-52150830D01*
X68860772Y-52109510D01*
X68834542Y-52043537D01*
X68834000Y-52031858D01*
X68834000Y-51126000D01*
X68854002Y-51057879D01*
X68907658Y-51011386D01*
X68960000Y-51000000D01*
X123874000Y-51000000D01*
X123942121Y-51020002D01*
G37*
G04 #@! TD.AperFunction*
G04 #@! TD*
G04 #@! TA.AperFunction,Conductor*
G04 #@! TO.N,GND*
G36*
X61156121Y-51020002D02*
G01*
X61202614Y-51073658D01*
X61214000Y-51126000D01*
X61214000Y-52031378D01*
X61193998Y-52099499D01*
X61140342Y-52145992D01*
X61070068Y-52156096D01*
X61058586Y-52153897D01*
X60947230Y-52127162D01*
X60937483Y-52125619D01*
X60709930Y-52107710D01*
X60700070Y-52107710D01*
X60472517Y-52125619D01*
X60462770Y-52127162D01*
X60240824Y-52180447D01*
X60231439Y-52183496D01*
X60020563Y-52270844D01*
X60011769Y-52275325D01*
X59842917Y-52378797D01*
X59833457Y-52389253D01*
X59837241Y-52398031D01*
X60975115Y-53535905D01*
X61009141Y-53598217D01*
X61004076Y-53669032D01*
X60975115Y-53714095D01*
X59840284Y-54848926D01*
X59833524Y-54861306D01*
X59839251Y-54868956D01*
X60011769Y-54974675D01*
X60020563Y-54979156D01*
X60231439Y-55066504D01*
X60240824Y-55069553D01*
X60462770Y-55122838D01*
X60472517Y-55124381D01*
X60700070Y-55142290D01*
X60709930Y-55142290D01*
X60937483Y-55124381D01*
X60947230Y-55122838D01*
X61058586Y-55096103D01*
X61129494Y-55099650D01*
X61187228Y-55140970D01*
X61213458Y-55206943D01*
X61214000Y-55218622D01*
X61214000Y-55831378D01*
X61193998Y-55899499D01*
X61140342Y-55945992D01*
X61070068Y-55956096D01*
X61058586Y-55953897D01*
X60947230Y-55927162D01*
X60937483Y-55925619D01*
X60709930Y-55907710D01*
X60700070Y-55907710D01*
X60472517Y-55925619D01*
X60462770Y-55927162D01*
X60240824Y-55980447D01*
X60231439Y-55983496D01*
X60020563Y-56070844D01*
X60011769Y-56075325D01*
X59842917Y-56178797D01*
X59833457Y-56189253D01*
X59837241Y-56198031D01*
X60975115Y-57335905D01*
X61009141Y-57398217D01*
X61004076Y-57469032D01*
X60975115Y-57514095D01*
X59840284Y-58648926D01*
X59833524Y-58661306D01*
X59839251Y-58668956D01*
X60011769Y-58774675D01*
X60020563Y-58779156D01*
X60231439Y-58866504D01*
X60240824Y-58869553D01*
X60462770Y-58922838D01*
X60472517Y-58924381D01*
X60700070Y-58942290D01*
X60709930Y-58942290D01*
X60937483Y-58924381D01*
X60947230Y-58922838D01*
X61169176Y-58869553D01*
X61178561Y-58866504D01*
X61389437Y-58779156D01*
X61398231Y-58774675D01*
X61533165Y-58691987D01*
X61601698Y-58673449D01*
X61669375Y-58694905D01*
X61714708Y-58749544D01*
X61725000Y-58799420D01*
X61725000Y-84000000D01*
X51126000Y-84000000D01*
X51057879Y-83979998D01*
X51011386Y-83926342D01*
X51000000Y-83874000D01*
X51000000Y-79905014D01*
X51020002Y-79836893D01*
X51073658Y-79790400D01*
X51143932Y-79780296D01*
X51167541Y-79786059D01*
X51353793Y-79851101D01*
X51362802Y-79853515D01*
X51606682Y-79899817D01*
X51615936Y-79900871D01*
X51863982Y-79910617D01*
X51873295Y-79910291D01*
X52120047Y-79883268D01*
X52129224Y-79881567D01*
X52369269Y-79818369D01*
X52378089Y-79815332D01*
X52606160Y-79717345D01*
X52614432Y-79713038D01*
X52825513Y-79582417D01*
X52829904Y-79579227D01*
X52837778Y-79567279D01*
X52836588Y-79565246D01*
X55861499Y-79565246D01*
X55870210Y-79576763D01*
X55963310Y-79645028D01*
X55971213Y-79649965D01*
X56190880Y-79765538D01*
X56199454Y-79769266D01*
X56433793Y-79851101D01*
X56442802Y-79853515D01*
X56686682Y-79899817D01*
X56695936Y-79900871D01*
X56943982Y-79910617D01*
X56953295Y-79910291D01*
X57200047Y-79883268D01*
X57209224Y-79881567D01*
X57449269Y-79818369D01*
X57458089Y-79815332D01*
X57686160Y-79717345D01*
X57694432Y-79713038D01*
X57905513Y-79582417D01*
X57909904Y-79579227D01*
X57917778Y-79567279D01*
X57911715Y-79556925D01*
X56900812Y-78546022D01*
X56886868Y-78538408D01*
X56885035Y-78538539D01*
X56878420Y-78542790D01*
X55868158Y-79553052D01*
X55861499Y-79565246D01*
X52836588Y-79565246D01*
X52831715Y-79556925D01*
X51537885Y-78263095D01*
X51503859Y-78200783D01*
X51508924Y-78129968D01*
X51537885Y-78084905D01*
X51718905Y-77903885D01*
X51781217Y-77869859D01*
X51852032Y-77874924D01*
X51897095Y-77903885D01*
X53189823Y-79196613D01*
X53202203Y-79203373D01*
X53210544Y-79197129D01*
X53332732Y-79007166D01*
X53337178Y-78998977D01*
X53439132Y-78772647D01*
X53442323Y-78763880D01*
X53509701Y-78524977D01*
X53511561Y-78515835D01*
X53543079Y-78268083D01*
X53543560Y-78261797D01*
X53545776Y-78177160D01*
X53545625Y-78170851D01*
X53527116Y-77921780D01*
X53525739Y-77912574D01*
X53470954Y-77670456D01*
X53468230Y-77661545D01*
X53378261Y-77430191D01*
X53374247Y-77421774D01*
X53251070Y-77206262D01*
X53245854Y-77198529D01*
X53174821Y-77108423D01*
X53148356Y-77042543D01*
X53161709Y-76972813D01*
X53210641Y-76921373D01*
X53279617Y-76904553D01*
X53346736Y-76927694D01*
X53355601Y-76934606D01*
X53381119Y-76956401D01*
X53381124Y-76956404D01*
X53384884Y-76959616D01*
X53604113Y-77093960D01*
X53608683Y-77095853D01*
X53608687Y-77095855D01*
X53766522Y-77161232D01*
X53841660Y-77192355D01*
X53899566Y-77206257D01*
X54086861Y-77251223D01*
X54086867Y-77251224D01*
X54091674Y-77252378D01*
X54348000Y-77272551D01*
X54604326Y-77252378D01*
X54609133Y-77251224D01*
X54609139Y-77251223D01*
X54796434Y-77206257D01*
X54854340Y-77192355D01*
X54929478Y-77161232D01*
X55087313Y-77095855D01*
X55087317Y-77095853D01*
X55091887Y-77093960D01*
X55311116Y-76959616D01*
X55336437Y-76937990D01*
X55401227Y-76908959D01*
X55471427Y-76919564D01*
X55524749Y-76966439D01*
X55544264Y-77034701D01*
X55523776Y-77102677D01*
X55515141Y-77114371D01*
X55476167Y-77161232D01*
X55470757Y-77168817D01*
X55341984Y-77381028D01*
X55337746Y-77389345D01*
X55241756Y-77618254D01*
X55238795Y-77627104D01*
X55177695Y-77867687D01*
X55176074Y-77876881D01*
X55151206Y-78123853D01*
X55150961Y-78133180D01*
X55162871Y-78381120D01*
X55164008Y-78390380D01*
X55212435Y-78633843D01*
X55214924Y-78642818D01*
X55298806Y-78876447D01*
X55302603Y-78884975D01*
X55420091Y-79103630D01*
X55425105Y-79111501D01*
X55485308Y-79192123D01*
X55496569Y-79200574D01*
X55508987Y-79193803D01*
X56527658Y-78175132D01*
X57252408Y-78175132D01*
X57252539Y-78176965D01*
X57256790Y-78183580D01*
X58269823Y-79196613D01*
X58282203Y-79203373D01*
X58290544Y-79197129D01*
X58412732Y-79007166D01*
X58417178Y-78998977D01*
X58519132Y-78772647D01*
X58522323Y-78763880D01*
X58589701Y-78524977D01*
X58591561Y-78515835D01*
X58623079Y-78268083D01*
X58623560Y-78261797D01*
X58625776Y-78177160D01*
X58625625Y-78170851D01*
X58607116Y-77921780D01*
X58605739Y-77912574D01*
X58550954Y-77670456D01*
X58548230Y-77661545D01*
X58458261Y-77430191D01*
X58454247Y-77421774D01*
X58331068Y-77206257D01*
X58325858Y-77198534D01*
X58291589Y-77155063D01*
X58279665Y-77146593D01*
X58268130Y-77153080D01*
X57260022Y-78161188D01*
X57252408Y-78175132D01*
X56527658Y-78175132D01*
X57908453Y-76794337D01*
X57914837Y-76782647D01*
X57905425Y-76770537D01*
X57773868Y-76679272D01*
X57765839Y-76674543D01*
X57543201Y-76564750D01*
X57534568Y-76561262D01*
X57298140Y-76485581D01*
X57289089Y-76483408D01*
X57044076Y-76443505D01*
X57034787Y-76442693D01*
X56786583Y-76439443D01*
X56777272Y-76440013D01*
X56531319Y-76473485D01*
X56522183Y-76475427D01*
X56283882Y-76544886D01*
X56275139Y-76548155D01*
X56049715Y-76652077D01*
X56041560Y-76656597D01*
X55830058Y-76795264D01*
X55829286Y-76794086D01*
X55768861Y-76817447D01*
X55699312Y-76803183D01*
X55648516Y-76753582D01*
X55632600Y-76684392D01*
X55656617Y-76617581D01*
X55662553Y-76610069D01*
X55673616Y-76597116D01*
X55807960Y-76377887D01*
X55906355Y-76140340D01*
X55966378Y-75890326D01*
X55986551Y-75634000D01*
X55966378Y-75377674D01*
X55906355Y-75127660D01*
X55807960Y-74890113D01*
X55673616Y-74670884D01*
X55650886Y-74644270D01*
X55621856Y-74579481D01*
X55632463Y-74509281D01*
X55679339Y-74455959D01*
X55747601Y-74436445D01*
X55821204Y-74460830D01*
X55963301Y-74565021D01*
X55971220Y-74569969D01*
X56190880Y-74685538D01*
X56199454Y-74689266D01*
X56433793Y-74771101D01*
X56442802Y-74773515D01*
X56686682Y-74819817D01*
X56695936Y-74820871D01*
X56943982Y-74830617D01*
X56953295Y-74830291D01*
X57200047Y-74803268D01*
X57209224Y-74801567D01*
X57449269Y-74738369D01*
X57458089Y-74735332D01*
X57686160Y-74637345D01*
X57694432Y-74633038D01*
X57905513Y-74502417D01*
X57909904Y-74499227D01*
X57917778Y-74487279D01*
X57911715Y-74476925D01*
X56529922Y-73095132D01*
X57252408Y-73095132D01*
X57252539Y-73096965D01*
X57256790Y-73103580D01*
X58269823Y-74116613D01*
X58282203Y-74123373D01*
X58290544Y-74117129D01*
X58412732Y-73927166D01*
X58417178Y-73918977D01*
X58519132Y-73692647D01*
X58522323Y-73683880D01*
X58589701Y-73444977D01*
X58591561Y-73435835D01*
X58623079Y-73188083D01*
X58623560Y-73181797D01*
X58625776Y-73097160D01*
X58625625Y-73090851D01*
X58607116Y-72841780D01*
X58605739Y-72832574D01*
X58550954Y-72590456D01*
X58548230Y-72581545D01*
X58458261Y-72350191D01*
X58454247Y-72341774D01*
X58331068Y-72126257D01*
X58325858Y-72118534D01*
X58291589Y-72075063D01*
X58279665Y-72066593D01*
X58268130Y-72073080D01*
X57260022Y-73081188D01*
X57252408Y-73095132D01*
X56529922Y-73095132D01*
X55507075Y-72072285D01*
X55493766Y-72065017D01*
X55483731Y-72072137D01*
X55476174Y-72081223D01*
X55470753Y-72088823D01*
X55341984Y-72301028D01*
X55337746Y-72309345D01*
X55241756Y-72538254D01*
X55238795Y-72547104D01*
X55177695Y-72787687D01*
X55176074Y-72796881D01*
X55151206Y-73043853D01*
X55150961Y-73053180D01*
X55162871Y-73301120D01*
X55164008Y-73310380D01*
X55212435Y-73553843D01*
X55214924Y-73562818D01*
X55298806Y-73796447D01*
X55302603Y-73804975D01*
X55420091Y-74023630D01*
X55425102Y-74031497D01*
X55521837Y-74161041D01*
X55546569Y-74227591D01*
X55531395Y-74296947D01*
X55481133Y-74347089D01*
X55411740Y-74362098D01*
X55345250Y-74337208D01*
X55339049Y-74332241D01*
X55314881Y-74311599D01*
X55314874Y-74311594D01*
X55311116Y-74308384D01*
X55091887Y-74174040D01*
X55087317Y-74172147D01*
X55087313Y-74172145D01*
X54858913Y-74077539D01*
X54858911Y-74077538D01*
X54854340Y-74075645D01*
X54767498Y-74054796D01*
X54609139Y-74016777D01*
X54609133Y-74016776D01*
X54604326Y-74015622D01*
X54348000Y-73995449D01*
X54091674Y-74015622D01*
X54086867Y-74016776D01*
X54086861Y-74016777D01*
X53928502Y-74054796D01*
X53841660Y-74075645D01*
X53837089Y-74077538D01*
X53837087Y-74077539D01*
X53608687Y-74172145D01*
X53608683Y-74172147D01*
X53604113Y-74174040D01*
X53384884Y-74308384D01*
X53371705Y-74319640D01*
X53306917Y-74348670D01*
X53236717Y-74338063D01*
X53183395Y-74291188D01*
X53163880Y-74222926D01*
X53184369Y-74154950D01*
X53190205Y-74147260D01*
X53190019Y-74147120D01*
X53198446Y-74135937D01*
X53332732Y-73927166D01*
X53337179Y-73918974D01*
X53439132Y-73692647D01*
X53442323Y-73683880D01*
X53509701Y-73444977D01*
X53511561Y-73435835D01*
X53543079Y-73188083D01*
X53543560Y-73181797D01*
X53545776Y-73097160D01*
X53545625Y-73090851D01*
X53527116Y-72841780D01*
X53525739Y-72832574D01*
X53470954Y-72590456D01*
X53468230Y-72581545D01*
X53378261Y-72350191D01*
X53374247Y-72341774D01*
X53251068Y-72126257D01*
X53245858Y-72118534D01*
X53211589Y-72075063D01*
X53199665Y-72066593D01*
X53188130Y-72073080D01*
X51897095Y-73364115D01*
X51834783Y-73398141D01*
X51763968Y-73393076D01*
X51718905Y-73364115D01*
X51537885Y-73183095D01*
X51503859Y-73120783D01*
X51508924Y-73049968D01*
X51537885Y-73004905D01*
X52828453Y-71714337D01*
X52834837Y-71702647D01*
X52833448Y-71700860D01*
X55859273Y-71700860D01*
X55863846Y-71710636D01*
X56875188Y-72721978D01*
X56889132Y-72729592D01*
X56890965Y-72729461D01*
X56897580Y-72725210D01*
X57908453Y-71714337D01*
X57914837Y-71702647D01*
X57905425Y-71690537D01*
X57773868Y-71599272D01*
X57765839Y-71594543D01*
X57543201Y-71484750D01*
X57534568Y-71481262D01*
X57298140Y-71405581D01*
X57289089Y-71403408D01*
X57044076Y-71363505D01*
X57034787Y-71362693D01*
X56786583Y-71359443D01*
X56777272Y-71360013D01*
X56531319Y-71393485D01*
X56522183Y-71395427D01*
X56283882Y-71464886D01*
X56275139Y-71468155D01*
X56049715Y-71572077D01*
X56041560Y-71576597D01*
X55868410Y-71690119D01*
X55859273Y-71700860D01*
X52833448Y-71700860D01*
X52825425Y-71690537D01*
X52693868Y-71599272D01*
X52685839Y-71594543D01*
X52463201Y-71484750D01*
X52454568Y-71481262D01*
X52218140Y-71405581D01*
X52209089Y-71403408D01*
X51964076Y-71363505D01*
X51954787Y-71362693D01*
X51706583Y-71359443D01*
X51697272Y-71360013D01*
X51451319Y-71393485D01*
X51442183Y-71395427D01*
X51203882Y-71464886D01*
X51195145Y-71468153D01*
X51178750Y-71475711D01*
X51108512Y-71486065D01*
X51043827Y-71456802D01*
X51005231Y-71397212D01*
X51000000Y-71361284D01*
X51000000Y-57429930D01*
X59187710Y-57429930D01*
X59205619Y-57657483D01*
X59207162Y-57667230D01*
X59260447Y-57889176D01*
X59263496Y-57898561D01*
X59350844Y-58109437D01*
X59355325Y-58118231D01*
X59458797Y-58287083D01*
X59469253Y-58296543D01*
X59478031Y-58292759D01*
X60332978Y-57437812D01*
X60340592Y-57423868D01*
X60340461Y-57422035D01*
X60336210Y-57415420D01*
X59481074Y-56560284D01*
X59468694Y-56553524D01*
X59461044Y-56559251D01*
X59355325Y-56731769D01*
X59350844Y-56740563D01*
X59263496Y-56951439D01*
X59260447Y-56960824D01*
X59207162Y-57182770D01*
X59205619Y-57192517D01*
X59187710Y-57420070D01*
X59187710Y-57429930D01*
X51000000Y-57429930D01*
X51000000Y-53629930D01*
X59187710Y-53629930D01*
X59205619Y-53857483D01*
X59207162Y-53867230D01*
X59260447Y-54089176D01*
X59263496Y-54098561D01*
X59350844Y-54309437D01*
X59355325Y-54318231D01*
X59458797Y-54487083D01*
X59469253Y-54496543D01*
X59478031Y-54492759D01*
X60332978Y-53637812D01*
X60340592Y-53623868D01*
X60340461Y-53622035D01*
X60336210Y-53615420D01*
X59481074Y-52760284D01*
X59468694Y-52753524D01*
X59461044Y-52759251D01*
X59355325Y-52931769D01*
X59350844Y-52940563D01*
X59263496Y-53151439D01*
X59260447Y-53160824D01*
X59207162Y-53382770D01*
X59205619Y-53392517D01*
X59187710Y-53620070D01*
X59187710Y-53629930D01*
X51000000Y-53629930D01*
X51000000Y-51126000D01*
X51020002Y-51057879D01*
X51073658Y-51011386D01*
X51126000Y-51000000D01*
X61088000Y-51000000D01*
X61156121Y-51020002D01*
G37*
G04 #@! TD.AperFunction*
G04 #@! TD*
G04 #@! TA.AperFunction,Conductor*
G04 #@! TO.N,/5V*
G36*
X67192121Y-58520002D02*
G01*
X67238614Y-58573658D01*
X67250000Y-58626000D01*
X67250000Y-65374000D01*
X67229998Y-65442121D01*
X67176342Y-65488614D01*
X67124000Y-65500000D01*
X65210559Y-65500000D01*
X65142438Y-65479998D01*
X65112170Y-65452712D01*
X62777611Y-62534514D01*
X62750675Y-62468825D01*
X62750000Y-62455802D01*
X62750000Y-58626000D01*
X62770002Y-58557879D01*
X62823658Y-58511386D01*
X62876000Y-58500000D01*
X67124000Y-58500000D01*
X67192121Y-58520002D01*
G37*
G04 #@! TD.AperFunction*
G04 #@! TD*
M02*
